#N canvas 940 181 254 319 12;
#X msg 20 21 devices;
#X floatatom 20 79 5 0 0 0 - - -, f 5;
#X obj 20 269 dac~;
#X obj 20 173 osc~;
#X obj 20 203 *~ 0.05;
#X obj 58 268 dsp~;
#X obj 58 241 tgl 15 0 empty empty empty 17 7 0 10 -262144 -1 -1 0
1;
#X msg 84 21 close;
#X floatatom 20 143 5 0 0 0 - - -, f 5;
#X obj 20 50 comport 2 9600;
#X msg 137 21 open 1;
#X obj 20 111 scale 0 255 300 800;
#X connect 0 0 9 0;
#X connect 1 0 11 0;
#X connect 3 0 4 0;
#X connect 4 0 2 0;
#X connect 4 0 2 1;
#X connect 6 0 5 0;
#X connect 7 0 9 0;
#X connect 8 0 3 0;
#X connect 9 0 1 0;
#X connect 10 0 9 0;
#X connect 11 0 8 0;
